<?xml version="1.0" encoding="UTF-8"?>
<svg id="Layer_2" xmlns="http://www.w3.org/2000/svg" viewBox="0 0 100 100">
  <defs>
    <style>
      .cls-1 {
        fill: #fff;
      }

      .cls-2 {
        fill: #3b0c5a;
        stroke: #3b0c5a;
        stroke-miterlimit: 10;
      }
    </style>
  </defs>
  <g id="Layer_2-2" data-name="Layer_2">
    <g>
      <circle class="cls-1" cx="50" cy="50" r="50"/>
      <path class="cls-2" d="M74.8,61.11c.84.97,3.22,1.45,5.41,1.37,2.95-.1,5.7-1.08,5.21-2.11-.47-.97-1.59,1.81-6.29,1.11-1.52-.23-2.81-.51-3.36-1.25,2.08-1.74,5.66-6.43,5.33-9.29-.36-3.14-5.02-4.03-6.57-1.36-1.54-2.66-6.11-1.63-6.44,1.52-.33,3.69,3.69,7.86,5.72,9.32h0s-4.41,8.92-11.03,11.15c-4.46,2.01-8.66,1.5-9.16-4.88-1.31-7.56,4.41-14.29,5.12-21.31-2.14-4.42-5.77,5.39-6.12,7.13-3.74,10.82-22.83,35.27-32.05,20.18-1.07-1.75-1.58-3.79-1.52-5.84.56-19.84,14.08-42.18,33.49-47.81,11.53-2.76,16.07,7.18,11.16,16.86-.18.35-.41,1.69-.17,2.52.29.97,1.33.85,1.85.17,7.48-9.99,1.89-23.49-12.08-22.07h0c-14.34,3.2-24.4,14.05-30.21,26.35-3.07,6.5-6.56,14.19-6.54,21.73-.7,9.58,6.91,18.06,16.61,13.93,12.67-3.87,19.97-27.33,18.29-11.49h0c1.22,9.36,8.78,8.67,14.89,4.8,3.05-1.68,6.94-7.15,8.45-10.71M74.55,59.63c-.35-.4-7.03-6.28-5.29-9.78.35-.71.94-1.01.94-1.01.83-.43,1.75-.11,2.04-.01,1.77.62,2.02,2.89,2.3,2.89s.54-2.27,2.32-2.89c.29-.1,1.21-.42,2.04.01,0,0,.58.3.94,1.01,1.74,3.5-4.9,9.45-5.27,9.78Z"/>
    </g>
  </g>
</svg>