<?xml version="1.0" encoding="UTF-8"?>
<svg id="Layer_2" xmlns="http://www.w3.org/2000/svg" viewBox="0 0 16.25 16.25">
  <defs>
    <style>
      .cls-1 {
        fill: #3b0c5a;
        stroke: #3b0c5a;
        stroke-width: .25px;
      }

      .cls-1, .cls-2 {
        stroke-miterlimit: 10;
      }

      .cls-2 {
        fill: #fff;
        stroke: #fff;
        stroke-width: .75px;
      }
    </style>
  </defs>
  <g id="Layer_2-2" data-name="Layer_2">
    <g>
      <rect class="cls-1" x=".12" y=".12" width="16" height="16" rx="2.5" ry="2.5"/>
      <path class="cls-2" d="M13.38,10.47c-.61,1.04-.89,1.62-2.05,2.07-.29.11-.86.33-1.27.06-.24-.16-.41-.47-.45-.98-.25-1.42.83-2.68.96-4-.4-.83-1.08,1.01-1.15,1.34-.7,2.03-4.28,6.62-6.01,3.79-.2-.33-.3-.71-.29-1.1.1-3.72,2.64-7.92,6.28-8.97,2.16-.52,3.02,1.35,2.09,3.16-.03.07-.08.32-.03.47.05.18.25.16.35.03,1.4-1.88.35-4.41-2.27-4.14-2.69.6-4.58,2.64-5.67,4.94-.58,1.22-1.23,2.66-1.23,4.08-.13,1.8,1.3,3.39,3.12,2.61,2.38-.73,3.75-5.13,3.43-2.16.08.63.31,1.01.63,1.22.76.49,1.79-.1,2.16-.32,1-.58,1.69-1.5,1.59-1.94-.02-.09-.15-.27-.2-.18Z"/>
    </g>
  </g>
</svg>