<?xml version="1.0" encoding="UTF-8"?>
<svg id="Layer_2" xmlns="http://www.w3.org/2000/svg" viewBox="0 0 16.25 16.25">
  <defs>
    <style>
      .cls-1 {
        fill: #3b0c5a;
        stroke: #3b0c5a;
        stroke-width: .25px;
      }

      .cls-1, .cls-2 {
        stroke-miterlimit: 10;
      }

      .cls-2 {
        fill: #fff;
        stroke: #fff;
        stroke-width: .75px;
      }
    </style>
  </defs>
  <g id="Layer_2-2" data-name="Layer_2">
    <g>
      <circle class="cls-1" cx="8.12" cy="8.12" r="8"/>
      <path class="cls-2" d="M12.73,9.79c-.53.91-.77,1.42-1.8,1.81-.26.1-.75.29-1.11.06-.21-.14-.36-.41-.39-.86-.21-1.24.72-2.34.84-3.5-.35-.72-.95.88-1,1.17-.61,1.78-3.75,5.79-5.26,3.31-.18-.29-.26-.62-.25-.96.09-3.26,2.31-6.92,5.49-7.85,1.89-.45,2.64,1.18,1.83,2.77-.03.06-.07.28-.03.41.05.16.22.14.3.03,1.23-1.64.31-3.85-1.98-3.62-2.35.52-4,2.31-4.96,4.32-.5,1.07-1.08,2.33-1.07,3.57-.11,1.57,1.13,2.96,2.73,2.29,2.08-.63,3.28-4.48,3-1.89.07.55.28.89.55,1.06.66.43,1.57-.09,1.89-.28.87-.5,1.48-1.31,1.39-1.7-.02-.08-.13-.23-.17-.16Z"/>
    </g>
  </g>
</svg>