<?xml version="1.0" encoding="UTF-8"?>
<svg id="Layer_2" data-name="Layer 2" xmlns="http://www.w3.org/2000/svg" viewBox="0 0 131.54 128.61">
  <defs>
    <style>
      .cls-1 {
        fill: #fff;
        stroke: #fff;
        stroke-miterlimit: 10;
        stroke-width: 1.25px;
      }

      .cls-2 {
        fill: #3b0c5a;
      }
    </style>
  </defs>
  <g id="Layer_2-2" data-name="Layer 2">
    <g>
      <g>
        <circle class="cls-2" cx="66.6" cy="50" r="50"/>
        <path class="cls-1" d="M91.4,61.11c.84.97,3.22,1.45,5.41,1.37,2.95-.1,5.7-1.08,5.21-2.11-.47-.97-1.59,1.81-6.29,1.11-1.52-.23-2.81-.51-3.36-1.25,2.08-1.74,5.66-6.43,5.33-9.29-.36-3.14-5.02-4.03-6.57-1.36-1.54-2.66-6.11-1.63-6.44,1.52-.33,3.69,3.69,7.86,5.72,9.32h0s-4.41,8.92-11.03,11.15c-4.46,2.01-8.66,1.5-9.16-4.88-1.31-7.56,4.41-14.29,5.12-21.31-2.14-4.42-5.77,5.39-6.12,7.13-3.74,10.82-22.83,35.27-32.05,20.18-1.07-1.75-1.58-3.79-1.52-5.84.56-19.84,14.08-42.18,33.49-47.81,11.53-2.76,16.07,7.18,11.16,16.86-.18.35-.41,1.69-.17,2.52.29.97,1.33.85,1.85.17,7.48-9.99,1.89-23.49-12.08-22.07h0c-14.34,3.2-24.4,14.05-30.21,26.35-3.07,6.5-6.56,14.19-6.54,21.73-.7,9.58,6.91,18.06,16.61,13.93,12.67-3.87,19.97-27.33,18.29-11.49h0c1.22,9.36,8.78,8.67,14.89,4.8,3.05-1.68,6.94-7.15,8.45-10.71M91.15,59.63c-.35-.4-7.03-6.28-5.29-9.78.35-.71.94-1.01.94-1.01.83-.43,1.75-.11,2.04-.01,1.77.62,2.02,2.89,2.3,2.89s.54-2.27,2.32-2.89c.29-.1,1.21-.42,2.04.01,0,0,.58.3.94,1.01,1.74,3.5-4.9,9.45-5.27,9.78Z"/>
      </g>
      <g>
        <path class="cls-2" d="M13.27,124.55H4.87l-1.66,3.89H0l7.56-16.8h3.07l7.59,16.8h-3.26l-1.68-3.89ZM12.24,122.1l-3.17-7.34-3.14,7.34h6.31Z"/>
        <path class="cls-2" d="M32.69,121.09v7.34h-3v-6.96c0-2.28-1.13-3.38-3.05-3.38-2.14,0-3.58,1.3-3.58,3.86v6.48h-3v-12.82h2.86v1.66c.98-1.18,2.54-1.8,4.42-1.8,3.07,0,5.35,1.75,5.35,5.62Z"/>
        <path class="cls-2" d="M48.91,115.62v12.82h-2.86v-1.63c-.96,1.18-2.47,1.8-4.13,1.8-3.29,0-5.52-1.8-5.52-5.66v-7.32h3v6.91c0,2.33,1.1,3.43,3,3.43,2.09,0,3.5-1.3,3.5-3.86v-6.48h3Z"/>
        <path class="cls-2" d="M65.54,121.41l-2.66,2.74v4.3h-3.12v-16.8h3.12v8.62l8.3-8.62h3.5l-7.06,7.51,7.49,9.29h-3.65l-5.93-7.03Z"/>
        <path class="cls-2" d="M89.59,121.09v7.34h-3v-6.96c0-2.28-1.13-3.38-3.05-3.38-2.14,0-3.58,1.3-3.58,3.86v6.48h-3v-17.81h3v6.48c.98-1.06,2.5-1.63,4.27-1.63,3.07,0,5.35,1.75,5.35,5.62Z"/>
        <path class="cls-2" d="M104.14,120.93v7.51h-2.83v-1.56c-.72,1.1-2.11,1.73-4.03,1.73-2.93,0-4.78-1.61-4.78-3.84s1.44-3.82,5.33-3.82h3.31v-.19c0-1.75-1.06-2.78-3.19-2.78-1.44,0-2.93.48-3.89,1.27l-1.18-2.18c1.37-1.06,3.36-1.58,5.43-1.58,3.7,0,5.83,1.75,5.83,5.45ZM101.14,124.43v-1.49h-3.1c-2.04,0-2.59.77-2.59,1.7,0,1.08.91,1.78,2.45,1.78s2.74-.67,3.24-1.99Z"/>
        <path class="cls-2" d="M115.68,127.74c-.72.58-1.8.86-2.88.86-2.81,0-4.42-1.49-4.42-4.32v-6.17h-2.11v-2.4h2.11v-2.93h3v2.93h3.43v2.4h-3.43v6.1c0,1.25.62,1.92,1.78,1.92.62,0,1.22-.17,1.68-.53l.84,2.14Z"/>
        <path class="cls-2" d="M125.57,115.48v2.86c-.26-.05-.48-.07-.7-.07-2.28,0-3.72,1.34-3.72,3.96v6.22h-3v-12.82h2.86v1.87c.86-1.34,2.42-2.02,4.56-2.02Z"/>
        <path class="cls-2" d="M127.7,111.71c0-1.01.82-1.8,1.92-1.8s1.92.74,1.92,1.73c0,1.06-.79,1.87-1.92,1.87s-1.92-.79-1.92-1.8ZM128.11,115.62h3v12.82h-3v-12.82Z"/>
      </g>
    </g>
  </g>
</svg>