<?xml version="1.0" encoding="UTF-8"?>
<svg id="Layer_2" xmlns="http://www.w3.org/2000/svg" viewBox="0 0 38 38">
  <defs>
    <style>
      .cls-1 {
        fill: #fff;
        stroke: #fff;
        stroke-miterlimit: 10;
        stroke-width: .75px;
      }

      .cls-2 {
        fill: #3b0c5a;
      }
    </style>
  </defs>
  <g id="Layer_2-2" data-name="Layer_2">
    <g>
      <circle class="cls-2" cx="19" cy="19" r="19"/>
      <path class="cls-1" d="M28.43,23.22c.32.37,1.22.55,2.06.52,1.12-.04,2.17-.41,1.98-.8-.18-.37-.6.69-2.39.42-.58-.09-1.07-.19-1.28-.47.79-.66,2.15-2.44,2.03-3.53-.14-1.19-1.91-1.53-2.5-.52-.59-1.01-2.32-.62-2.45.58-.13,1.4,1.4,2.99,2.18,3.54h0s-1.68,3.39-4.19,4.24c-1.7.77-3.29.57-3.48-1.85-.5-2.87,1.68-5.43,1.94-8.1-.81-1.68-2.19,2.05-2.33,2.71-1.42,4.11-8.67,13.4-12.18,7.67-.41-.66-.6-1.44-.58-2.22.21-7.54,5.35-16.03,12.72-18.17,4.38-1.05,6.11,2.73,4.24,6.41-.07.13-.16.64-.06.96.11.37.51.32.7.06,2.84-3.8.72-8.93-4.59-8.39h0c-5.45,1.22-9.27,5.34-11.48,10.01-1.17,2.47-2.49,5.39-2.49,8.26-.26,3.64,2.63,6.86,6.31,5.29,4.81-1.47,7.59-10.39,6.95-4.37h0c.46,3.56,3.34,3.29,5.66,1.82,1.16-.64,2.64-2.72,3.21-4.07M28.33,22.66c-.13-.15-2.67-2.39-2.01-3.72.13-.27.36-.38.36-.38.32-.16.66-.04.77,0,.67.24.77,1.1.88,1.1s.21-.86.88-1.1c.11-.04.46-.16.77,0,0,0,.22.11.36.38.66,1.33-1.86,3.59-2,3.72Z"/>
    </g>
  </g>
</svg>