<?xml version="1.0" encoding="UTF-8"?>
<svg id="Layer_2" xmlns="http://www.w3.org/2000/svg" viewBox="0 0 305.06 91.54">
  <defs>
    <style>
      .cls-1 {
        letter-spacing: 0em;
      }

      .cls-2 {
        stroke-width: 1.25px;
      }

      .cls-2, .cls-3 {
        fill: #fff;
        stroke: #fff;
        stroke-miterlimit: 10;
      }

      .cls-4 {
        font-family: Montserrat-SemiBold, Montserrat;
        font-size: 36px;
        font-weight: 600;
      }

      .cls-3 {
        stroke-width: 1.5px;
      }
    </style>
  </defs>
  <g id="Layer_2-2" data-name="Layer_2">
    <g>
      <rect class="cls-3" x=".75" y=".75" width="303.56" height="90.04" rx="8" ry="8"/>
      <g>
        <g>
          <circle cx="49.2" cy="45.77" r="32.99"/>
          <path class="cls-2" d="M65.56,53.1c.55.64,2.12.95,3.57.9,1.95-.07,3.76-.71,3.44-1.39-.31-.64-1.05,1.19-4.15.73-1.01-.15-1.86-.34-2.21-.82,1.37-1.15,3.73-4.24,3.52-6.13-.24-2.07-3.31-2.66-4.34-.9-1.02-1.75-4.03-1.07-4.25,1-.22,2.44,2.44,5.19,3.78,6.15h0s-2.91,5.88-7.28,7.36c-2.94,1.33-5.72.99-6.05-3.22-.86-4.99,2.91-9.43,3.38-14.06-1.41-2.91-3.8,3.56-4.04,4.7-2.47,7.14-15.06,23.27-21.14,13.32-.71-1.15-1.04-2.5-1-3.86.37-13.09,9.29-27.83,22.09-31.55,7.6-1.82,10.6,4.74,7.36,11.13-.12.23-.27,1.12-.11,1.66.19.64.88.56,1.22.11,4.94-6.59,1.25-15.5-7.97-14.56h0c-9.46,2.11-16.09,9.27-19.93,17.38-2.03,4.29-4.33,9.36-4.32,14.34-.46,6.32,4.56,11.92,10.96,9.19,8.36-2.55,13.17-18.03,12.07-7.58h0c.81,6.18,5.79,5.72,9.82,3.17,2.01-1.11,4.58-4.72,5.58-7.07M65.39,52.12c-.23-.27-4.64-4.14-3.49-6.45.23-.47.62-.67.62-.67.55-.29,1.15-.07,1.34,0,1.17.41,1.33,1.91,1.52,1.91s.36-1.49,1.53-1.91c.19-.07.8-.28,1.34,0,0,0,.38.2.62.67,1.15,2.31-3.23,6.23-3.48,6.45Z"/>
        </g>
        <text class="cls-4" transform="translate(89.41 56.35)"><tspan x="0" y="0">Anu Khat</tspan><tspan class="cls-1" x="174.09" y="0">r</tspan><tspan x="189.03" y="0">i</tspan></text>
      </g>
    </g>
  </g>
</svg>