<?xml version="1.0" encoding="UTF-8"?>
<svg id="Layer_2" data-name="Layer 2" xmlns="http://www.w3.org/2000/svg" viewBox="0 0 189.54 50">
  <defs>
    <style>
      .cls-1 {
        fill: #fff;
        stroke: #fff;
        stroke-miterlimit: 10;
        stroke-width: 1.25px;
      }

      .cls-2 {
        fill: #3b0c5a;
      }
    </style>
  </defs>
  <g id="Layer_2-2" data-name="Layer 2">
    <g>
      <g>
        <circle class="cls-2" cx="25" cy="25" r="25"/>
        <path class="cls-1" d="M37.4,30.55c.42.49,1.61.72,2.71.69,1.48-.05,2.85-.54,2.61-1.06-.23-.49-.79.9-3.14.55-.76-.11-1.41-.25-1.68-.62,1.04-.87,2.83-3.21,2.67-4.65-.18-1.57-2.51-2.01-3.29-.68-.77-1.33-3.06-.81-3.22.76-.17,1.85,1.85,3.93,2.86,4.66h0s-2.21,4.46-5.51,5.58c-2.23,1.01-4.33.75-4.58-2.44-.65-3.78,2.2-7.15,2.56-10.66-1.07-2.21-2.88,2.7-3.06,3.57-1.87,5.41-11.41,17.64-16.02,10.09-.53-.87-.79-1.9-.76-2.92.28-9.92,7.04-21.09,16.74-23.91,5.76-1.38,8.04,3.59,5.58,8.43-.09.18-.21.85-.08,1.26.14.49.67.43.92.08,3.74-5,.95-11.74-6.04-11.03h0c-7.17,1.6-12.2,7.02-15.1,13.17-1.53,3.25-3.28,7.1-3.27,10.87-.35,4.79,3.45,9.03,8.31,6.96,6.33-1.93,9.98-13.66,9.14-5.75h0c.61,4.68,4.39,4.34,7.45,2.4,1.53-.84,3.47-3.57,4.23-5.36M37.28,29.81c-.18-.2-3.52-3.14-2.64-4.89.18-.35.47-.5.47-.5.41-.22.87-.06,1.02,0,.89.31,1.01,1.44,1.15,1.44s.27-1.13,1.16-1.44c.14-.05.6-.21,1.02,0,0,0,.29.15.47.5.87,1.75-2.45,4.72-2.64,4.89Z"/>
      </g>
      <g>
        <path class="cls-2" d="M71.27,30.29h-8.4l-1.66,3.89h-3.22l7.56-16.8h3.07l7.58,16.8h-3.26l-1.68-3.89ZM70.24,27.84l-3.17-7.34-3.14,7.34h6.31Z"/>
        <path class="cls-2" d="M90.69,26.84v7.34h-3v-6.96c0-2.28-1.13-3.38-3.05-3.38-2.14,0-3.58,1.3-3.58,3.86v6.48h-3v-12.82h2.86v1.66c.98-1.18,2.54-1.8,4.42-1.8,3.07,0,5.35,1.75,5.35,5.62Z"/>
        <path class="cls-2" d="M106.91,21.36v12.82h-2.86v-1.63c-.96,1.18-2.47,1.8-4.13,1.8-3.29,0-5.52-1.8-5.52-5.66v-7.32h3v6.91c0,2.33,1.1,3.43,3,3.43,2.09,0,3.5-1.3,3.5-3.86v-6.48h3Z"/>
        <path class="cls-2" d="M123.54,27.15l-2.66,2.74v4.3h-3.12v-16.8h3.12v8.62l8.3-8.62h3.5l-7.06,7.51,7.49,9.29h-3.65l-5.93-7.03Z"/>
        <path class="cls-2" d="M147.59,26.84v7.34h-3v-6.96c0-2.28-1.13-3.38-3.05-3.38-2.14,0-3.58,1.3-3.58,3.86v6.48h-3v-17.81h3v6.48c.98-1.06,2.5-1.63,4.27-1.63,3.07,0,5.35,1.75,5.35,5.62Z"/>
        <path class="cls-2" d="M162.14,26.67v7.51h-2.83v-1.56c-.72,1.1-2.11,1.73-4.03,1.73-2.93,0-4.78-1.61-4.78-3.84s1.44-3.82,5.33-3.82h3.31v-.19c0-1.75-1.06-2.78-3.19-2.78-1.44,0-2.93.48-3.89,1.27l-1.18-2.18c1.37-1.06,3.36-1.58,5.42-1.58,3.7,0,5.83,1.75,5.83,5.45ZM159.14,30.17v-1.49h-3.1c-2.04,0-2.59.77-2.59,1.7,0,1.08.91,1.78,2.45,1.78s2.74-.67,3.24-1.99Z"/>
        <path class="cls-2" d="M173.68,33.48c-.72.58-1.8.86-2.88.86-2.81,0-4.42-1.49-4.42-4.32v-6.17h-2.11v-2.4h2.11v-2.93h3v2.93h3.43v2.4h-3.43v6.1c0,1.25.62,1.92,1.78,1.92.62,0,1.22-.17,1.68-.53l.84,2.14Z"/>
        <path class="cls-2" d="M183.57,21.22v2.86c-.26-.05-.48-.07-.7-.07-2.28,0-3.72,1.34-3.72,3.96v6.22h-3v-12.82h2.86v1.87c.86-1.34,2.42-2.02,4.56-2.02Z"/>
        <path class="cls-2" d="M185.7,17.45c0-1.01.82-1.8,1.92-1.8s1.92.74,1.92,1.73c0,1.06-.79,1.87-1.92,1.87s-1.92-.79-1.92-1.8ZM186.11,21.36h3v12.82h-3v-12.82Z"/>
      </g>
    </g>
  </g>
</svg>