<?xml version="1.0" encoding="UTF-8"?>
<svg id="Layer_2" data-name="Layer 2" xmlns="http://www.w3.org/2000/svg" viewBox="0 0 275.29 65.97">
  <defs>
    <style>
      .cls-1 {
        fill: #fff;
        stroke: #fff;
        stroke-miterlimit: 10;
        stroke-width: 1.25px;
      }

      .cls-2 {
        fill: #3b0c5a;
      }
    </style>
  </defs>
  <g id="Layer_2-2" data-name="Layer 2">
    <g>
      <g>
        <circle class="cls-2" cx="32.99" cy="32.99" r="32.99"/>
        <path class="cls-1" d="M49.35,40.32c.55.64,2.12.95,3.57.9,1.95-.07,3.76-.71,3.44-1.39-.31-.64-1.05,1.19-4.15.73-1.01-.15-1.86-.34-2.21-.82,1.37-1.15,3.73-4.24,3.52-6.13-.24-2.07-3.31-2.66-4.34-.9-1.02-1.75-4.03-1.07-4.25,1-.22,2.44,2.44,5.19,3.78,6.15h0s-2.91,5.88-7.28,7.36c-2.94,1.33-5.72.99-6.05-3.22-.86-4.99,2.91-9.43,3.38-14.06-1.41-2.91-3.8,3.56-4.04,4.7-2.47,7.14-15.06,23.27-21.14,13.32-.71-1.15-1.04-2.5-1-3.86.37-13.09,9.29-27.83,22.09-31.55,7.6-1.82,10.6,4.74,7.36,11.13-.12.23-.27,1.12-.11,1.66.19.64.88.56,1.22.11,4.94-6.59,1.25-15.5-7.97-14.56h0c-9.46,2.11-16.09,9.27-19.93,17.38-2.03,4.29-4.33,9.36-4.32,14.34-.46,6.32,4.56,11.92,10.96,9.19,8.36-2.55,13.17-18.03,12.07-7.58h0c.81,6.18,5.79,5.72,9.82,3.17,2.01-1.11,4.58-4.72,5.58-7.07M49.18,39.34c-.23-.27-4.64-4.14-3.49-6.45.23-.47.62-.67.62-.67.55-.29,1.15-.07,1.34,0,1.17.41,1.33,1.91,1.52,1.91s.36-1.49,1.53-1.91c.19-.07.8-.28,1.34,0,0,0,.38.2.62.67,1.15,2.31-3.23,6.23-3.48,6.45Z"/>
      </g>
      <g>
        <path class="cls-2" d="M97.88,37.74h-12.6l-2.48,5.83h-4.82l11.34-25.2h4.61l11.37,25.2h-4.9l-2.52-5.83ZM96.33,34.07l-4.75-11.01-4.72,11.01h9.47Z"/>
        <path class="cls-2" d="M127,32.56v11.01h-4.5v-10.44c0-3.42-1.69-5.08-4.57-5.08-3.2,0-5.36,1.94-5.36,5.79v9.72h-4.5v-19.22h4.28v2.48c1.48-1.76,3.82-2.7,6.62-2.7,4.61,0,8.03,2.63,8.03,8.42Z"/>
        <path class="cls-2" d="M151.34,24.35v19.22h-4.28v-2.45c-1.44,1.76-3.71,2.7-6.19,2.7-4.93,0-8.28-2.7-8.28-8.5v-10.98h4.5v10.37c0,3.49,1.66,5.15,4.5,5.15,3.13,0,5.26-1.94,5.26-5.79v-9.72h4.5Z"/>
        <path class="cls-2" d="M176.29,33.02l-4,4.1v6.44h-4.68v-25.2h4.68v12.92l12.45-12.92h5.26l-10.58,11.27,11.23,13.93h-5.47l-8.89-10.55Z"/>
        <path class="cls-2" d="M212.36,32.56v11.01h-4.5v-10.44c0-3.42-1.69-5.08-4.57-5.08-3.2,0-5.36,1.94-5.36,5.79v9.72h-4.5v-26.71h4.5v9.72c1.48-1.58,3.74-2.45,6.41-2.45,4.61,0,8.03,2.63,8.03,8.42Z"/>
        <path class="cls-2" d="M234.17,32.3v11.27h-4.25v-2.34c-1.08,1.66-3.17,2.59-6.05,2.59-4.39,0-7.16-2.41-7.16-5.76s2.16-5.72,7.99-5.72h4.97v-.29c0-2.63-1.58-4.18-4.79-4.18-2.16,0-4.39.72-5.83,1.91l-1.76-3.28c2.05-1.58,5.04-2.38,8.14-2.38,5.54,0,8.75,2.63,8.75,8.17ZM229.67,37.56v-2.23h-4.64c-3.06,0-3.89,1.15-3.89,2.56,0,1.62,1.37,2.66,3.67,2.66s4.1-1.01,4.86-2.99Z"/>
        <path class="cls-2" d="M251.49,42.53c-1.08.86-2.7,1.3-4.32,1.3-4.21,0-6.62-2.23-6.62-6.48v-9.25h-3.17v-3.6h3.17v-4.39h4.5v4.39h5.15v3.6h-5.15v9.14c0,1.87.94,2.88,2.66,2.88.94,0,1.84-.25,2.52-.79l1.26,3.2Z"/>
        <path class="cls-2" d="M266.32,24.13v4.28c-.4-.07-.72-.11-1.04-.11-3.42,0-5.58,2.02-5.58,5.94v9.32h-4.5v-19.22h4.28v2.81c1.3-2.02,3.64-3.02,6.84-3.02Z"/>
        <path class="cls-2" d="M269.53,18.48c0-1.51,1.22-2.7,2.88-2.7s2.88,1.12,2.88,2.59c0,1.58-1.19,2.81-2.88,2.81s-2.88-1.19-2.88-2.7ZM270.14,24.35h4.5v19.22h-4.5v-19.22Z"/>
      </g>
    </g>
  </g>
</svg>