<?xml version="1.0" encoding="UTF-8"?>
<svg id="Layer_2" xmlns="http://www.w3.org/2000/svg" viewBox="0 0 187.25 95.16">
  <defs>
    <style>
      .cls-1 {
        fill: #3b0c5a;
        stroke: #3b0c5a;
      }

      .cls-1, .cls-2 {
        stroke-miterlimit: 10;
        stroke-width: 1.5px;
      }

      .cls-2 {
        fill: #fff;
        stroke: #fff;
      }
    </style>
  </defs>
  <g id="Layer_2-2" data-name="Layer_2">
    <g>
      <rect class="cls-2" x=".75" y=".75" width="185.75" height="93.66" rx="8" ry="8"/>
      <path class="cls-1" d="M169.8,62.61c-.57-1.18-1.93,2.19-7.63,1.34-1.85-.28-3.42-.62-4.08-1.51,2.52-2.11,6.87-7.81,6.48-11.29-.43-3.81-6.09-4.89-7.99-1.65-1.88-3.23-7.43-1.98-7.82,1.84-.41,4.49,4.48,9.55,6.95,11.32,0,0-1.91,3.85-5.15,7.53-7.09,6.87-15.95,4.31-12.37-10.12.19-2.07-3.01-1.26-3.04-.11-10.28,20.36-16.9,13.82-8.47-4.56-3.91-3.4-3.7,6.9-5.57,9.2-2.9,5.53-14.94,15.29-17.67,7.31-1.06-3.1,1.09-6.21,1.85-9.56.09-.39.03-.77.02-1.1-.25-8.94-12.51,3.21-16.31,4.25-.92-.91-.56-1.41.11-2.5.7-1.64,1.78-4.18,2.06-5.43.08-.36-.12-.68-.2-.93-1.04-3.28-4.18,2.42-3.71,4.41-.97,5.55-9.16,13.63-16.16,15.98-4.4,1.17-8.11-.21-8.62-6.74-1.59-9.18,5.35-17.36,6.22-25.88-2.6-5.36-7,6.55-7.44,8.66-4.54,13.14-27.73,42.85-38.93,24.51-1.3-2.12-1.92-4.61-1.85-7.1.68-24.1,17.1-51.24,40.67-58.08,14-3.35,19.52,8.72,13.55,20.48-.22.43-.5,2.06-.2,3.06.35,1.18,1.62,1.03,2.24.2,9.09-12.14,2.3-28.53-14.67-26.8-17.42,3.88-29.63,17.06-36.69,32-3.73,7.89-7.97,17.24-7.95,26.39-.84,11.64,8.39,21.94,20.18,16.92,15.39-4.69,24.25-33.19,22.21-13.96,1.06,8.12,6.17,9.98,11.64,8.69,4.85-1.57,10.22-5.35,13.25-9.37-.25,1.65-2.32,6.46.21,5,.14-.08.24-.28.39-.5,3.07-4.51,22.04-22.36,16.4-8.89-3.01,5.07.04,11.82,6.62,10.86,3.98-.49,8.75-3.76,11.58-6.92-.29,11.37,11.01,3.32,14.05-1.77,2.15-1.82.74,3.5,3.8,6.41,3.65,3.53,9.45,1.31,13.61-2.41,2.57-2.07,4.45-5.72,5.53-8.27,1.02,1.18,3.91,1.76,6.58,1.67,3.59-.12,6.93-1.32,6.33-2.56ZM156.59,61.71c-.43-.49-8.54-7.63-6.42-11.88.43-.86,1.14-1.23,1.14-1.23,1.01-.53,2.12-.14,2.47-.01,2.15.76,2.45,3.51,2.8,3.51s.66-2.75,2.81-3.51c.35-.12,1.46-.51,2.47.01,0,0,.71.37,1.14,1.23,2.12,4.25-5.95,11.48-6.41,11.88Z"/>
    </g>
  </g>
</svg>